<?xml version="1.0" encoding="UTF-8"?>
<!DOCTYPE svg PUBLIC "-//W3C//DTD SVG 1.1//EN" "http://www.w3.org/Graphics/SVG/1.1/DTD/svg11.dtd">
<svg xmlns="http://www.w3.org/2000/svg" version="1.1" width="200px" height="200px" style="shape-rendering:geometricPrecision; text-rendering:geometricPrecision; image-rendering:optimizeQuality; fill-rule:evenodd; clip-rule:evenodd" xmlns:xlink="http://www.w3.org/1999/xlink">
<g><path style="opacity:0.967" fill="#ffd8cf" d="M 93.5,17.5 C 134.934,17.4451 163.434,36.4451 179,74.5C 189.826,114.659 178.659,147.159 145.5,172C 138.52,176.989 130.854,179.989 122.5,181C 121.299,180.097 120.465,178.931 120,177.5C 119.667,167.167 119.333,156.833 119,146.5C 118.274,143.379 116.774,140.713 114.5,138.5C 144.243,134.238 156.41,117.238 151,87.5C 149.645,82.6197 147.145,78.453 143.5,75C 146.24,67.793 146.074,60.6263 143,53.5C 139.532,53.0508 136.032,53.5508 132.5,55C 128.266,57.4091 123.933,59.5758 119.5,61.5C 106.171,57.5731 92.8377,57.5731 79.5,61.5C 72.7312,57.5317 65.5645,54.5317 58,52.5C 53.4162,59.1237 52.5829,66.2904 55.5,74C 47.9255,84.2906 45.4255,95.7906 48,108.5C 50.4812,121.644 57.9812,130.477 70.5,135C 75.1728,136.168 79.8395,137.335 84.5,138.5C 81.7281,142.043 80.0615,146.043 79.5,150.5C 74.1703,152.343 68.837,152.509 63.5,151C 62.1667,150.333 60.8333,149.667 59.5,149C 56.1667,145 52.8333,141 49.5,137C 45.9349,134.343 42.2683,134.01 38.5,136C 45.3617,140.547 50.195,146.713 53,154.5C 57.3654,159.849 63.0321,162.182 70,161.5C 73.2001,161.344 76.3668,161.011 79.5,160.5C 79.6662,166.509 79.4995,172.509 79,178.5C 78.101,180.368 76.601,181.368 74.5,181.5C 34.5553,166.367 15.0553,137.367 16,94.5C 23.1366,49.8629 48.97,24.1963 93.5,17.5 Z"/></g>
</svg>
