<?xml version="1.0" encoding="UTF-8"?>
<!DOCTYPE svg PUBLIC "-//W3C//DTD SVG 1.1//EN" "http://www.w3.org/Graphics/SVG/1.1/DTD/svg11.dtd">
<svg xmlns="http://www.w3.org/2000/svg" version="1.1" width="200px" height="200px" style="shape-rendering:geometricPrecision; text-rendering:geometricPrecision; image-rendering:optimizeQuality; fill-rule:evenodd; clip-rule:evenodd" xmlns:xlink="http://www.w3.org/1999/xlink">
<g><path style="opacity:0.986" fill="#ffd8cf" d="M 30.5,24.5 C 76.5012,24.3333 122.501,24.5 168.5,25C 170.09,26.0458 171.59,27.2125 173,28.5C 174.656,75.0833 174.99,121.75 174,168.5C 172.954,170.09 171.787,171.59 170.5,173C 123.917,174.656 77.2501,174.99 30.5,174C 28.9095,172.954 27.4095,171.787 26,170.5C 24.3436,123.917 24.0103,77.2501 25,30.5C 26.3597,27.9774 28.193,25.9774 30.5,24.5 Z M 53.5,45.5 C 63.0349,44.0364 68.7016,48.0364 70.5,57.5C 68.5446,67.6171 62.5446,71.4505 52.5,69C 45.1317,63.9322 43.6317,57.4322 48,49.5C 49.8121,48.0229 51.6455,46.6896 53.5,45.5 Z M 119.5,80.5 C 140.436,79.2709 151.436,89.1043 152.5,110C 151.51,124.088 151.176,138.255 151.5,152.5C 144.5,152.5 137.5,152.5 130.5,152.5C 130.667,137.83 130.5,123.163 130,108.5C 125.511,97.9416 118.344,95.7749 108.5,102C 106.57,104.258 105.07,106.758 104,109.5C 103.5,123.829 103.333,138.163 103.5,152.5C 96.5,152.5 89.5,152.5 82.5,152.5C 82.5,129.167 82.5,105.833 82.5,82.5C 89.1667,82.5 95.8333,82.5 102.5,82.5C 102.183,85.5719 102.516,88.5719 103.5,91.5C 107.795,86.1855 113.129,82.5188 119.5,80.5 Z M 46.5,82.5 C 53.8333,82.5 61.1667,82.5 68.5,82.5C 68.5,105.833 68.5,129.167 68.5,152.5C 61.1667,152.5 53.8333,152.5 46.5,152.5C 46.5,129.167 46.5,105.833 46.5,82.5 Z"/></g>
</svg>
