<?xml version="1.0" encoding="UTF-8"?>
<!DOCTYPE svg PUBLIC "-//W3C//DTD SVG 1.1//EN" "http://www.w3.org/Graphics/SVG/1.1/DTD/svg11.dtd">
<svg xmlns="http://www.w3.org/2000/svg" version="1.1" width="46px" height="135px" style="shape-rendering:geometricPrecision; text-rendering:geometricPrecision; image-rendering:optimizeQuality; fill-rule:evenodd; clip-rule:evenodd" xmlns:xlink="http://www.w3.org/1999/xlink">
<g><path style="opacity:0.973" fill="#ffd8cf" d="M 20.5,-0.5 C 22.5,-0.5 24.5,-0.5 26.5,-0.5C 26.3333,40.8347 26.5,82.168 27,123.5C 31.8333,118.667 36.6667,113.833 41.5,109C 42.8193,108.805 44.1526,108.972 45.5,109.5C 45.5,111.167 45.5,112.833 45.5,114.5C 38.5,120.833 31.8333,127.5 25.5,134.5C 24.1667,134.5 22.8333,134.5 21.5,134.5C 14.5215,127.187 7.52149,119.854 0.5,112.5C 1.28506,109.858 2.95173,108.691 5.5,109C 10.3333,113.833 15.1667,118.667 20,123.5C 20.5,82.168 20.6667,40.8347 20.5,-0.5 Z"/></g>
</svg>
